<svg width="158" height="40" viewBox="0 0 158 40" fill="none" xmlns="http://www.w3.org/2000/svg">
<path d="M1.37109 39V8.0625H10.793L13.3945 26.9238L15.9785 8.0625H25.4883V39H19.8281V16.7109L16.2773 39H10.7227L6.96094 16.7109V39H1.37109Z" fill="white"/>
<path d="M29.134 39L32.4562 22.5996L29.8195 8.04492H35.8664L37.466 18.6797L38.8898 8.04492H44.9543L42.3176 22.5996L45.6223 39H39.3645L37.4133 26.9062L35.4094 39H29.134Z" fill="white"/>
<path d="M59.5055 39V8.0625H67.8902C70.1402 8.0625 71.775 8.61328 72.7945 9.71484C73.8258 10.8047 74.3414 12.6094 74.3414 15.1289V16.4824C74.3414 17.9355 74.0777 19.1133 73.5504 20.0156C73.0348 20.918 72.2438 21.5098 71.1773 21.791C72.5719 22.1426 73.5035 22.9688 73.9723 24.2695C74.4527 25.5586 74.693 27.1348 74.693 28.998C74.693 31.002 74.5055 32.7539 74.1305 34.2539C73.7555 35.7539 73.0758 36.9199 72.0914 37.752C71.107 38.584 69.7066 39 67.8902 39H59.5055ZM65.5523 19.7168H66.818C67.3922 19.7168 67.7613 19.4941 67.9254 19.0488C68.0895 18.6035 68.1715 18.0703 68.1715 17.4492V14.3379C68.1715 13.3418 67.732 12.8438 66.8531 12.8438H65.5523V19.7168ZM66.1676 33.5508C67.773 33.5508 68.5758 32.7891 68.5758 31.2656V27.3984C68.5758 26.5195 68.441 25.8281 68.1715 25.3242C67.9137 24.8086 67.4215 24.5508 66.6949 24.5508H65.5523V33.5156C65.8102 33.5391 66.0152 33.5508 66.1676 33.5508Z" fill="white"/>
<path d="M78.532 39V8.0625H88.0242C89.6062 8.0625 90.8016 8.42578 91.6102 9.15234C92.4187 9.86719 92.9578 10.875 93.2273 12.1758C93.5086 13.4648 93.6492 14.9824 93.6492 16.7285C93.6492 18.416 93.4324 19.7637 92.9988 20.7715C92.577 21.7793 91.7742 22.4766 90.5906 22.8633C91.5633 23.0625 92.243 23.5488 92.6297 24.3223C93.0281 25.084 93.2273 26.0742 93.2273 27.293V39H87.1277V26.8887C87.1277 25.9863 86.9402 25.4297 86.5652 25.2188C86.202 24.9961 85.6102 24.8848 84.7898 24.8848V39H78.532ZM84.825 19.5234H86.3191C87.1746 19.5234 87.6023 18.5918 87.6023 16.7285C87.6023 15.5215 87.5086 14.7305 87.3211 14.3555C87.1336 13.9805 86.782 13.793 86.2664 13.793H84.825V19.5234Z" fill="white"/>
<path d="M96.6445 39L99.6328 8.0625H110.127L113.062 39H107.209L106.77 34.0078H103.043L102.656 39H96.6445ZM103.482 29.0684H106.295L104.941 13.3359H104.66L103.482 29.0684Z" fill="white"/>
<path d="M124.109 39.2812C121.284 39.2812 119.245 38.5781 117.991 37.1719C116.749 35.7656 116.128 33.5273 116.128 30.457V27.4336H122.245V31.3008C122.245 32.0156 122.351 32.5781 122.562 32.9883C122.784 33.3867 123.165 33.5859 123.704 33.5859C124.267 33.5859 124.654 33.4219 124.864 33.0938C125.087 32.7656 125.198 32.2266 125.198 31.4766C125.198 30.5273 125.105 29.7363 124.917 29.1035C124.73 28.459 124.402 27.8496 123.933 27.2754C123.476 26.6895 122.837 26.0098 122.017 25.2363L119.239 22.5996C117.165 20.6426 116.128 18.4043 116.128 15.8848C116.128 13.248 116.738 11.2383 117.956 9.85547C119.187 8.47266 120.962 7.78125 123.282 7.78125C126.118 7.78125 128.128 8.53711 129.312 10.0488C130.507 11.5605 131.105 13.8574 131.105 16.9395H124.812V14.8125C124.812 14.3906 124.689 14.0625 124.443 13.8281C124.208 13.5938 123.886 13.4766 123.476 13.4766C122.984 13.4766 122.62 13.6172 122.386 13.8984C122.163 14.168 122.052 14.5195 122.052 14.9531C122.052 15.3867 122.169 15.8555 122.404 16.3594C122.638 16.8633 123.101 17.4434 123.792 18.0996L127.361 21.5273C128.075 22.207 128.732 22.9277 129.329 23.6895C129.927 24.4395 130.407 25.3184 130.771 26.3262C131.134 27.3223 131.316 28.541 131.316 29.9824C131.316 32.8887 130.777 35.168 129.698 36.8203C128.632 38.4609 126.769 39.2812 124.109 39.2812Z" fill="white"/>
<path d="M134.909 39V8.0625H140.885V39H134.909Z" fill="white"/>
<path d="M145.146 39V8.0625H151.334V33.7266H157.697V39H145.146Z" fill="white"/>
<path d="M0 0H78V4H0V0Z" fill="#CD0700"/>
</svg>
