<svg width="60" height="36" viewBox="0 0 60 36" fill="none" xmlns="http://www.w3.org/2000/svg">
<g clip-path="url(#clip0_51_71)">
<path d="M11.8014 7.40612C13.343 7.61067 14.915 7.91103 16.4291 8.26287C25.5744 10.3866 29.8705 8.97235 33.9481 7.37575C34.5569 9.73559 31.5246 11.0529 26.3437 13.5798C23.5465 13.0071 11.9824 10.2978 11.8014 7.40612ZM60 26.6389C60 31.8004 55.7895 36 50.6144 36C45.4389 36 41.2283 31.8004 41.2283 26.6389C41.2283 23.552 42.74 20.8181 45.0557 19.1128L42.1629 13.4946C41.1861 14.1199 40.2779 14.8504 39.4599 15.6791C37.7104 17.5352 36.5531 19.7276 35.6051 22.147C33.999 26.2379 31.094 27.1718 27.5854 27.1718C24.0779 27.1718 20.8102 27.1718 20.8102 27.1718C20.8102 27.1718 20.8752 26.4261 20.7311 25.2982L18.7242 25.7494C18.7535 26.0428 18.7699 26.3385 18.7699 26.6389C18.7699 31.8004 14.5594 36 9.3844 36C4.21057 36 0 31.8004 0 26.6389C0 21.4773 4.21057 17.278 9.3844 17.278C13.3482 17.278 16.7385 19.7451 18.1125 23.2177L20.1293 22.7642C19.5451 20.873 17.6256 18.0272 14.6121 16.6024L4.49942 11.8044L5.32208 10.0804C2.92441 8.96182 0.638091 7.6948 0.638091 6.93391H6.08615C7.19061 6.9725 8.44748 7.04848 9.77286 7.17586L9.79514 7.53001C9.99317 10.6928 15.426 13.3894 25.94 15.5423L26.6092 15.6791L28.0682 14.9696C33.1828 12.4847 36.8772 10.6882 35.8939 6.87546L35.833 6.64054C36.7823 6.26299 37.6652 5.95678 38.5453 5.79546L36.3246 2.48421L33.7237 2.49237C33.7225 2.49237 33.7213 2.49237 33.7213 2.49237C33.1676 2.49237 32.7176 2.0459 32.7164 1.49302C32.7147 0.94136 33.1623 0.491364 33.7172 0.487833L36.1658 0.480829C36.2737 0.347573 36.4107 0.233034 36.5725 0.148873C37.2123 -0.184244 38.001 0.0600556 38.3344 0.698222L41.976 6.42781C42.917 7.15014 43.5908 8.31196 44.1978 9.57898C46.2099 8.82856 48.3744 8.42066 50.6144 8.42066C52.6254 8.42066 54.6029 8.74443 56.4926 9.38376C57.1752 9.61636 57.5408 10.3562 57.3076 11.0365C57.0768 11.7168 56.3362 12.0849 55.6529 11.8512C54.0346 11.303 52.3401 11.0236 50.6144 11.0236C48.453 11.0236 46.3717 11.4643 44.4698 12.2731L47.3537 17.8718C48.3709 17.4942 49.4654 17.278 50.6144 17.278C55.7895 17.278 60 21.4773 60 26.6389ZM15.7564 26.6389C15.7564 26.564 15.7483 26.4928 15.7459 26.4191L12.508 27.1485C12.2619 28.6528 10.9635 29.804 9.38556 29.804C7.63303 29.804 6.21036 28.3863 6.21036 26.6389C6.21036 24.8903 7.63303 23.4725 9.38556 23.4725C10.3711 23.4725 11.24 23.9283 11.8231 24.6332L15.1213 23.8897C14.0918 21.7602 11.9104 20.2828 9.3844 20.2828C5.87167 20.2828 3.01349 23.1335 3.01349 26.6389C3.01349 30.143 5.87167 32.9949 9.3844 32.9949C12.8983 32.9949 15.7564 30.143 15.7564 26.6389ZM56.9865 26.6389C56.9865 23.1335 54.1272 20.2828 50.6144 20.2828C49.9705 20.2828 49.3494 20.3798 48.7635 20.5574L50.3098 23.5029C50.4112 23.4923 50.509 23.4725 50.6144 23.4725C52.367 23.4725 53.7885 24.8903 53.7885 26.6389C53.7885 28.3863 52.367 29.804 50.6144 29.804C48.8619 29.804 47.4392 28.3863 47.4392 26.6389C47.4392 25.9481 47.666 25.3169 48.0416 24.7956L46.476 21.8151C45.1108 22.9816 44.2418 24.7091 44.2418 26.6389C44.2418 30.143 47.1 32.9949 50.6144 32.9949C54.1272 32.9949 56.9865 30.143 56.9865 26.6389Z" fill="#141313"/>
</g>
<defs>
<clipPath id="clip0_51_71">
<rect width="60" height="36" fill="white"/>
</clipPath>
</defs>
</svg>
